{
	"asset":{
		"generator":"Khronos glTF Blender I/O v5.1.19",
		"version":"2.0"
	},
	"extensionsUsed":[
		"KHR_materials_specular"
	],
	"scene":0,
	"scenes":[
		{
			"name":"Scene",
			"nodes":[
				0
			]
		}
	],
	"nodes":[
		{
			"mesh":0,
			"name":"jewal 1"
		}
	],
	"materials":[
		{
			"doubleSided":true,
			"extensions":{
				"KHR_materials_specular":{
					"specularColorFactor":[
						2.0,
						2.0,
						2.0
					]
				}
			},
			"name":"jewal",
			"normalTexture":{
				"index":0
			},
			"pbrMetallicRoughness":{
				"baseColorTexture":{
					"index":1
				},
				"metallicFactor":0,
				"roughnessFactor":0.9292893409729004
			}
		}
	],
	"meshes":[
		{
			"name":"tripo_node_c5319156",
			"primitives":[
				{
					"attributes":{
						"POSITION":0,
						"NORMAL":1,
						"TEXCOORD_0":2
					},
					"indices":3,
					"material":0
				}
			]
		}
	],
	"textures":[
		{
			"sampler":0,
			"source":0
		},
		{
			"sampler":0,
			"source":1
		}
	],
	"images":[
		{
			"mimeType":"image/png",
			"name":"jewel_Normal",
			"uri":"jewel_Normal.png"
		},
		{
			"mimeType":"image/png",
			"name":"jewel_BaseMap",
			"uri":"jewel_BaseMap.png"
		}
	],
	"accessors":[
		{
			"bufferView":0,
			"componentType":5126,
			"count":433,
			"max":[
				0.18541738390922546,
				0.21215367317199707,
				0.0970975011587143
			],
			"min":[
				-0.25684913992881775,
				-0.29240676760673523,
				-0.09626952558755875
			],
			"type":"VEC3"
		},
		{
			"bufferView":1,
			"componentType":5126,
			"count":433,
			"type":"VEC3"
		},
		{
			"bufferView":2,
			"componentType":5126,
			"count":433,
			"type":"VEC2"
		},
		{
			"bufferView":3,
			"componentType":5123,
			"count":1716,
			"type":"SCALAR"
		}
	],
	"bufferViews":[
		{
			"buffer":0,
			"byteLength":5196,
			"byteOffset":0,
			"target":34962
		},
		{
			"buffer":0,
			"byteLength":5196,
			"byteOffset":5196,
			"target":34962
		},
		{
			"buffer":0,
			"byteLength":3464,
			"byteOffset":10392,
			"target":34962
		},
		{
			"buffer":0,
			"byteLength":3432,
			"byteOffset":13856,
			"target":34963
		}
	],
	"samplers":[
		{
			"magFilter":9729,
			"minFilter":9987
		}
	],
	"buffers":[
		{
			"byteLength":17288,
			"uri":"jewal%201.bin"
		}
	]
}
